<svg width="44" height="53" viewBox="0 0 44 53" fill="none" xmlns="http://www.w3.org/2000/svg">
<path d="M19.7108 32.6456C17.1918 32.6456 15.1509 30.5937 15.1509 28.0612V24.5489C12.5031 22.9407 10.8667 20.0569 10.8667 16.9328C10.8667 12.0341 14.8383 8.04126 19.7108 8.04126C24.5834 8.04126 28.555 12.0341 28.555 16.9328C28.555 20.0569 26.9185 22.9407 24.2708 24.5489V28.0612C24.2708 30.5937 22.2298 32.6456 19.7108 32.6456ZM19.7108 9.20585C15.4818 9.20585 12.0251 12.6627 12.0251 16.9328C12.0251 19.7426 13.5512 22.3491 16.015 23.6986C16.1989 23.8095 16.3092 23.9943 16.3092 24.2162V28.0797C16.3092 29.9652 17.8354 31.4995 19.7108 31.4995C21.5863 31.4995 23.1124 29.9652 23.1124 28.0797V24.2162C23.1124 23.9943 23.2227 23.8095 23.4066 23.6986C25.8705 22.3306 27.3966 19.7426 27.3966 16.9328C27.3966 12.6811 23.9582 9.20585 19.7108 9.20585Z" fill="black"/>
<path d="M23.6824 26.6194H15.7209C15.4083 26.6194 15.1325 26.3606 15.1325 26.0278C15.1325 25.6951 15.3899 25.4363 15.7209 25.4363H23.6824C23.995 25.4363 24.2708 25.6951 24.2708 26.0278C24.2708 26.3606 24.0134 26.6194 23.6824 26.6194Z" fill="black"/>
<path d="M19.7108 26.5269C19.3983 26.5269 19.1224 26.2681 19.1224 25.9353V20.2972L16.2541 17.2471C16.0334 17.0068 16.0518 16.6371 16.2725 16.4152C16.5115 16.1934 16.8792 16.2119 17.0999 16.4337L20.1337 19.6502C20.2441 19.7611 20.2992 19.909 20.2992 20.0569V25.9353C20.2992 26.2496 20.0418 26.5269 19.7108 26.5269Z" fill="black"/>
<path d="M19.7108 20.6669C19.5821 20.6669 19.435 20.6114 19.3247 20.519C19.0857 20.3157 19.0673 19.946 19.2695 19.6872L22.3953 16.0825C22.5976 15.8421 22.9653 15.8237 23.2227 16.027C23.4618 16.2303 23.4802 16.6001 23.2779 16.8589L20.1521 20.4635C20.0418 20.5929 19.8763 20.6669 19.7108 20.6669Z" fill="black"/>
<path d="M26.6979 52C26.3853 52 26.1095 51.7412 26.1095 51.4085V43.5336C26.1095 43.2193 26.3669 42.9421 26.6979 42.9421C26.6979 42.9421 35.1375 42.9421 36.1855 42.9421C36.5901 42.9421 36.9026 42.8311 37.1049 42.6093C37.5094 42.1841 37.491 41.4817 37.491 41.4632V30.4273C37.491 30.113 37.7484 29.8358 38.0794 29.8358H41.6281C42.4003 29.8358 42.7129 29.7248 42.8232 29.6694C42.7681 29.577 42.6577 29.4291 42.5842 29.3551C42.5474 29.3182 42.5107 29.2812 42.4923 29.2442L37.6197 22.1642C37.5462 22.0718 37.5094 21.9424 37.5094 21.8315V21.166C37.491 10.1671 29.3456 1.16459 19.3247 1.16459C9.3038 1.16459 1.15838 10.1671 1.15838 21.2215C1.15838 25.9353 3.67739 30.8894 8.64187 35.9545C8.75219 36.0654 8.80735 36.2133 8.80735 36.3612V51.4085C8.80735 51.7227 8.54994 52 8.21897 52C7.88801 52 7.63059 51.7412 7.63059 51.4085V36.6015C2.57417 31.3701 0 26.1941 0 21.2215C0 9.52009 8.67865 0 19.3247 0C29.9707 0 38.6494 9.52009 38.6494 21.2215V21.7021L43.3932 28.5787C43.6139 28.8006 44.2023 29.4291 43.9448 30.1315C43.6323 30.9449 42.4739 31.0373 41.6281 31.0373H38.6678V41.4632C38.6678 41.5556 38.7046 42.6648 37.9691 43.4227C37.5278 43.8848 36.9394 44.1251 36.2039 44.1251C35.8913 44.1251 34.6778 44.1251 33.2804 44.1251C31.1475 44.1251 28.463 44.1251 27.2863 44.1251V51.4269C27.2863 51.7412 27.0288 52.0185 26.6979 52.0185V52Z" fill="black"/>
</svg>
